<mxfile host="app.diagrams.net" agent="Mozilla/5.0 (Windows NT 10.0; Win64; x64) AppleWebKit/537.36 (KHTML, like Gecko) Chrome/135.0.0.0 Safari/537.36" version="26.2.13">
  <diagram name="Page-1" id="5f0bae14-7c28-e335-631c-24af17079c00">
    <mxGraphModel dx="1044" dy="561" grid="1" gridSize="10" guides="1" tooltips="1" connect="1" arrows="1" fold="1" page="1" pageScale="1" pageWidth="1100" pageHeight="850" background="none" math="0" shadow="0">
      <root>
        <mxCell id="0" />
        <mxCell id="1" parent="0" />
        <mxCell id="8KkDd0fn4KqGx7XWUjfA-1" value="&lt;p style=&quot;margin:0px;margin-top:6px;text-align:center;&quot;&gt;Web App&lt;/p&gt;" style="align=left;overflow=fill;html=1;dropTarget=0;whiteSpace=wrap;" parent="1" vertex="1">
          <mxGeometry x="140" y="60" width="560" height="240" as="geometry" />
        </mxCell>
        <mxCell id="8KkDd0fn4KqGx7XWUjfA-2" value="" style="shape=component;jettyWidth=8;jettyHeight=4;" parent="8KkDd0fn4KqGx7XWUjfA-1" vertex="1">
          <mxGeometry x="1" width="20" height="20" relative="1" as="geometry">
            <mxPoint x="-24" y="4" as="offset" />
          </mxGeometry>
        </mxCell>
        <mxCell id="8KkDd0fn4KqGx7XWUjfA-3" value="&lt;b&gt;Actions&lt;/b&gt;" style="html=1;dropTarget=0;whiteSpace=wrap;" parent="1" vertex="1">
          <mxGeometry x="160" y="150" width="110" height="70" as="geometry" />
        </mxCell>
        <mxCell id="8KkDd0fn4KqGx7XWUjfA-4" value="" style="shape=module;jettyWidth=8;jettyHeight=4;" parent="8KkDd0fn4KqGx7XWUjfA-3" vertex="1">
          <mxGeometry x="1" width="20" height="20" relative="1" as="geometry">
            <mxPoint x="-27" y="7" as="offset" />
          </mxGeometry>
        </mxCell>
        <mxCell id="8KkDd0fn4KqGx7XWUjfA-5" value="&lt;b&gt;Components&lt;/b&gt;" style="html=1;dropTarget=0;whiteSpace=wrap;" parent="1" vertex="1">
          <mxGeometry x="560" y="150" width="120" height="70" as="geometry" />
        </mxCell>
        <mxCell id="8KkDd0fn4KqGx7XWUjfA-6" value="" style="shape=module;jettyWidth=8;jettyHeight=4;" parent="8KkDd0fn4KqGx7XWUjfA-5" vertex="1">
          <mxGeometry x="1" width="20" height="20" relative="1" as="geometry">
            <mxPoint x="-27" y="7" as="offset" />
          </mxGeometry>
        </mxCell>
        <mxCell id="8KkDd0fn4KqGx7XWUjfA-7" value="&lt;p style=&quot;margin:0px;margin-top:6px;text-align:center;&quot;&gt;&lt;b&gt;App Router&lt;/b&gt;&lt;/p&gt;" style="align=left;overflow=fill;html=1;dropTarget=0;whiteSpace=wrap;" parent="1" vertex="1">
          <mxGeometry x="310" y="120" width="220" height="130" as="geometry" />
        </mxCell>
        <mxCell id="8KkDd0fn4KqGx7XWUjfA-8" value="" style="shape=component;jettyWidth=8;jettyHeight=4;" parent="8KkDd0fn4KqGx7XWUjfA-7" vertex="1">
          <mxGeometry x="1" width="20" height="20" relative="1" as="geometry">
            <mxPoint x="-24" y="4" as="offset" />
          </mxGeometry>
        </mxCell>
        <mxCell id="8KkDd0fn4KqGx7XWUjfA-9" value="&lt;b&gt;Pages&lt;/b&gt;" style="html=1;dropTarget=0;whiteSpace=wrap;" parent="1" vertex="1">
          <mxGeometry x="365" y="150" width="110" height="70" as="geometry" />
        </mxCell>
        <mxCell id="8KkDd0fn4KqGx7XWUjfA-10" value="" style="shape=module;jettyWidth=8;jettyHeight=4;" parent="8KkDd0fn4KqGx7XWUjfA-9" vertex="1">
          <mxGeometry x="1" width="20" height="20" relative="1" as="geometry">
            <mxPoint x="-27" y="7" as="offset" />
          </mxGeometry>
        </mxCell>
        <mxCell id="8KkDd0fn4KqGx7XWUjfA-12" value="" style="html=1;verticalAlign=bottom;endArrow=open;dashed=1;endSize=8;curved=0;rounded=0;fontSize=12;" parent="1" edge="1">
          <mxGeometry relative="1" as="geometry">
            <mxPoint x="310" y="184.51999999999998" as="sourcePoint" />
            <mxPoint x="270" y="185" as="targetPoint" />
          </mxGeometry>
        </mxCell>
        <mxCell id="8KkDd0fn4KqGx7XWUjfA-14" value="" style="html=1;verticalAlign=bottom;endArrow=open;dashed=1;endSize=8;curved=0;rounded=0;fontSize=12;entryX=0;entryY=0.5;entryDx=0;entryDy=0;" parent="1" target="8KkDd0fn4KqGx7XWUjfA-5" edge="1">
          <mxGeometry relative="1" as="geometry">
            <mxPoint x="530" y="185" as="sourcePoint" />
            <mxPoint x="590" y="175" as="targetPoint" />
          </mxGeometry>
        </mxCell>
        <mxCell id="8KkDd0fn4KqGx7XWUjfA-15" value="&lt;p style=&quot;margin:0px;margin-top:6px;text-align:center;&quot;&gt;&lt;b&gt;Supabase&lt;/b&gt;&lt;/p&gt;" style="align=left;overflow=fill;html=1;dropTarget=0;whiteSpace=wrap;" parent="1" vertex="1">
          <mxGeometry x="200" y="450" width="240" height="130" as="geometry" />
        </mxCell>
        <mxCell id="8KkDd0fn4KqGx7XWUjfA-16" value="" style="shape=component;jettyWidth=8;jettyHeight=4;" parent="8KkDd0fn4KqGx7XWUjfA-15" vertex="1">
          <mxGeometry x="1" width="20" height="20" relative="1" as="geometry">
            <mxPoint x="-24" y="4" as="offset" />
          </mxGeometry>
        </mxCell>
        <mxCell id="8KkDd0fn4KqGx7XWUjfA-20" value="" style="ellipse;whiteSpace=wrap;html=1;align=center;aspect=fixed;fillColor=none;strokeColor=none;resizable=0;perimeter=centerPerimeter;rotatable=0;allowArrows=0;points=[];outlineConnect=1;" parent="1" vertex="1">
          <mxGeometry x="425" y="340" width="10" height="10" as="geometry" />
        </mxCell>
        <mxCell id="8KkDd0fn4KqGx7XWUjfA-23" value="" style="rounded=0;orthogonalLoop=1;jettySize=auto;html=1;endArrow=oval;endFill=0;sketch=0;sourcePerimeterSpacing=0;targetPerimeterSpacing=0;endSize=10;fontSize=12;curved=1;exitX=0.5;exitY=0;exitDx=0;exitDy=0;" parent="1" source="8KkDd0fn4KqGx7XWUjfA-15" target="8KkDd0fn4KqGx7XWUjfA-24" edge="1">
          <mxGeometry relative="1" as="geometry">
            <mxPoint x="450" y="350" as="sourcePoint" />
          </mxGeometry>
        </mxCell>
        <mxCell id="8KkDd0fn4KqGx7XWUjfA-26" value="" style="rounded=0;orthogonalLoop=1;jettySize=auto;html=1;endArrow=halfCircle;endFill=0;endSize=6;strokeWidth=1;sketch=0;fontSize=12;curved=1;exitX=0.417;exitY=0.978;exitDx=0;exitDy=0;exitPerimeter=0;" parent="1" source="8KkDd0fn4KqGx7XWUjfA-3" edge="1">
          <mxGeometry relative="1" as="geometry">
            <mxPoint x="236.030303030303" y="233" as="sourcePoint" />
            <mxPoint x="303" y="363" as="targetPoint" />
          </mxGeometry>
        </mxCell>
        <mxCell id="8KkDd0fn4KqGx7XWUjfA-24" value="" style="ellipse;whiteSpace=wrap;html=1;align=center;aspect=fixed;fillColor=none;strokeColor=none;resizable=0;perimeter=centerPerimeter;rotatable=0;allowArrows=0;points=[];outlineConnect=1;" parent="1" vertex="1">
          <mxGeometry x="300" y="360" width="10" height="10" as="geometry" />
        </mxCell>
        <mxCell id="8KkDd0fn4KqGx7XWUjfA-28" value="" style="rounded=0;orthogonalLoop=1;jettySize=auto;html=1;endArrow=halfCircle;endFill=0;endSize=6;strokeWidth=1;sketch=0;fontSize=12;curved=1;exitX=1;exitY=0.5;exitDx=0;exitDy=0;" parent="1" source="8KkDd0fn4KqGx7XWUjfA-15" edge="1">
          <mxGeometry relative="1" as="geometry">
            <mxPoint x="640" y="355" as="sourcePoint" />
            <mxPoint x="640" y="505" as="targetPoint" />
          </mxGeometry>
        </mxCell>
        <mxCell id="8KkDd0fn4KqGx7XWUjfA-29" value="" style="rounded=0;orthogonalLoop=1;jettySize=auto;html=1;endArrow=oval;endFill=0;sketch=0;sourcePerimeterSpacing=0;targetPerimeterSpacing=0;endSize=10;fontSize=12;curved=1;" parent="1" edge="1">
          <mxGeometry relative="1" as="geometry">
            <mxPoint x="730" y="504.41" as="sourcePoint" />
            <mxPoint x="640" y="504.41" as="targetPoint" />
          </mxGeometry>
        </mxCell>
        <mxCell id="8KkDd0fn4KqGx7XWUjfA-30" value="" style="ellipse;whiteSpace=wrap;html=1;align=center;aspect=fixed;fillColor=none;strokeColor=none;resizable=0;perimeter=centerPerimeter;rotatable=0;allowArrows=0;points=[];outlineConnect=1;" parent="1" vertex="1">
          <mxGeometry x="615" y="350" width="10" height="10" as="geometry" />
        </mxCell>
        <mxCell id="8KkDd0fn4KqGx7XWUjfA-31" value="&lt;span style=&quot;white-space: pre;&quot;&gt;&#x9;&lt;/span&gt;&lt;span style=&quot;white-space: pre;&quot;&gt;&#x9;&amp;nbsp;&lt;/span&gt;&amp;nbsp; &amp;nbsp; &amp;nbsp; Stripe" style="align=left;overflow=fill;html=1;dropTarget=0;whiteSpace=wrap;" parent="1" vertex="1">
          <mxGeometry x="730" y="470" width="180" height="60" as="geometry" />
        </mxCell>
        <mxCell id="8KkDd0fn4KqGx7XWUjfA-32" value="" style="shape=component;jettyWidth=8;jettyHeight=4;" parent="8KkDd0fn4KqGx7XWUjfA-31" vertex="1">
          <mxGeometry x="1" width="20" height="20" relative="1" as="geometry">
            <mxPoint x="-24" y="4" as="offset" />
          </mxGeometry>
        </mxCell>
        <mxCell id="8KkDd0fn4KqGx7XWUjfA-33" value="&lt;p style=&quot;margin:0px;margin-top:6px;text-align:center;&quot;&gt;Mobile App&lt;/p&gt;" style="align=left;overflow=fill;html=1;dropTarget=0;whiteSpace=wrap;" parent="1" vertex="1">
          <mxGeometry x="750" y="60" width="430" height="245" as="geometry" />
        </mxCell>
        <mxCell id="8KkDd0fn4KqGx7XWUjfA-34" value="" style="shape=component;jettyWidth=8;jettyHeight=4;" parent="8KkDd0fn4KqGx7XWUjfA-33" vertex="1">
          <mxGeometry x="1" width="20" height="20" relative="1" as="geometry">
            <mxPoint x="-24" y="4" as="offset" />
          </mxGeometry>
        </mxCell>
        <mxCell id="8KkDd0fn4KqGx7XWUjfA-35" value="&lt;b&gt;Components&lt;/b&gt;" style="html=1;dropTarget=0;whiteSpace=wrap;" parent="1" vertex="1">
          <mxGeometry x="1030" y="160" width="120" height="70" as="geometry" />
        </mxCell>
        <mxCell id="8KkDd0fn4KqGx7XWUjfA-36" value="" style="shape=module;jettyWidth=8;jettyHeight=4;" parent="8KkDd0fn4KqGx7XWUjfA-35" vertex="1">
          <mxGeometry x="1" width="20" height="20" relative="1" as="geometry">
            <mxPoint x="-27" y="7" as="offset" />
          </mxGeometry>
        </mxCell>
        <mxCell id="8KkDd0fn4KqGx7XWUjfA-37" value="&lt;p style=&quot;margin:0px;margin-top:6px;text-align:center;&quot;&gt;&lt;b&gt;App Router&lt;/b&gt;&lt;/p&gt;" style="align=left;overflow=fill;html=1;dropTarget=0;whiteSpace=wrap;" parent="1" vertex="1">
          <mxGeometry x="780" y="130" width="220" height="130" as="geometry" />
        </mxCell>
        <mxCell id="8KkDd0fn4KqGx7XWUjfA-38" value="" style="shape=component;jettyWidth=8;jettyHeight=4;" parent="8KkDd0fn4KqGx7XWUjfA-37" vertex="1">
          <mxGeometry x="1" width="20" height="20" relative="1" as="geometry">
            <mxPoint x="-24" y="4" as="offset" />
          </mxGeometry>
        </mxCell>
        <mxCell id="8KkDd0fn4KqGx7XWUjfA-39" value="&lt;b&gt;Pages&lt;/b&gt;" style="html=1;dropTarget=0;whiteSpace=wrap;" parent="1" vertex="1">
          <mxGeometry x="835" y="160" width="110" height="70" as="geometry" />
        </mxCell>
        <mxCell id="8KkDd0fn4KqGx7XWUjfA-40" value="" style="shape=module;jettyWidth=8;jettyHeight=4;" parent="8KkDd0fn4KqGx7XWUjfA-39" vertex="1">
          <mxGeometry x="1" width="20" height="20" relative="1" as="geometry">
            <mxPoint x="-27" y="7" as="offset" />
          </mxGeometry>
        </mxCell>
        <mxCell id="8KkDd0fn4KqGx7XWUjfA-41" value="" style="html=1;verticalAlign=bottom;endArrow=open;dashed=1;endSize=8;curved=0;rounded=0;fontSize=12;entryX=0;entryY=0.5;entryDx=0;entryDy=0;" parent="1" edge="1">
          <mxGeometry relative="1" as="geometry">
            <mxPoint x="1002" y="195" as="sourcePoint" />
            <mxPoint x="1032" y="195" as="targetPoint" />
          </mxGeometry>
        </mxCell>
        <mxCell id="8KkDd0fn4KqGx7XWUjfA-42" value="" style="rounded=0;orthogonalLoop=1;jettySize=auto;html=1;endArrow=oval;endFill=0;sketch=0;sourcePerimeterSpacing=0;targetPerimeterSpacing=0;endSize=10;fontSize=12;curved=1;" parent="1" edge="1">
          <mxGeometry relative="1" as="geometry">
            <mxPoint x="437" y="487.9436325678496" as="sourcePoint" />
            <mxPoint x="796" y="407" as="targetPoint" />
          </mxGeometry>
        </mxCell>
        <mxCell id="8KkDd0fn4KqGx7XWUjfA-43" value="" style="rounded=0;orthogonalLoop=1;jettySize=auto;html=1;endArrow=halfCircle;endFill=0;endSize=6;strokeWidth=1;sketch=0;fontSize=12;curved=1;" parent="1" source="8KkDd0fn4KqGx7XWUjfA-39" edge="1">
          <mxGeometry relative="1" as="geometry">
            <mxPoint x="700" y="260" as="sourcePoint" />
            <mxPoint x="797" y="405" as="targetPoint" />
          </mxGeometry>
        </mxCell>
      </root>
    </mxGraphModel>
  </diagram>
</mxfile>
